<?xml version="1.0" encoding="UTF-8" standalone="no"?><!DOCTYPE svg PUBLIC "-//W3C//DTD SVG 1.1//EN" "http://www.w3.org/Graphics/SVG/1.1/DTD/svg11.dtd"><!-- Generated by graphviz version 2.40.1 (20161225.0304)
 --><!-- Title: G Pages: 1 --><svg xmlns="http://www.w3.org/2000/svg" xmlns:xlink="http://www.w3.org/1999/xlink" width="2838pt" height="512pt" viewBox="0.00 0.00 2838.00 512.00">
<g id="graph0" class="graph" transform="scale(1 1) rotate(0) translate(4 508)">
<title>G</title>
<polygon fill="#ffffff" stroke="transparent" points="-4,4 -4,-508 2834,-508 2834,4 -4,4"/>
<g id="clust1" class="cluster">
<title>cluster_1</title>
<polygon fill="#d3d3d3" stroke="#d3d3d3" points="1320,-347.2 1320,-496 1749,-496 1749,-347.2 1320,-347.2"/>
<text text-anchor="middle" x="1534.5" y="-479.4" font-family="Times,serif" font-size="14.00" fill="#000000">Этот человек женского пола?</text>
</g>
<g id="clust2" class="cluster">
<title>cluster_2</title>
<polygon fill="#d3d3d3" stroke="#d3d3d3" points="1263,-262.4 1263,-339.2 1562,-339.2 1562,-262.4 1263,-262.4"/>
<text text-anchor="middle" x="1412.5" y="-322.6" font-family="Times,serif" font-size="14.00" fill="#000000">Этот человек из СПб?</text>
</g>
<g id="clust3" class="cluster">
<title>cluster_3</title>
<polygon fill="#d3d3d3" stroke="#d3d3d3" points="1127,-177.6 1127,-254.4 1701,-254.4 1701,-177.6 1127,-177.6"/>
<text text-anchor="middle" x="1414" y="-237.8" font-family="Times,serif" font-size="14.00" fill="#000000">Практику по линалу ведет Тушавин?</text>
</g>
<g id="clust4" class="cluster">
<title>cluster_4</title>
<polygon fill="#d3d3d3" stroke="#d3d3d3" points="784,-92.8 784,-169.6 2045,-169.6 2045,-92.8 784,-92.8"/>
<text text-anchor="middle" x="1414.5" y="-153" font-family="Times,serif" font-size="14.00" fill="#000000">Ему 18 лет?</text>
</g>
<g id="clust5" class="cluster">
<title>cluster_5</title>
<polygon fill="#d3d3d3" stroke="#d3d3d3" points="8,-8 8,-84.8 2822,-84.8 2822,-8 8,-8"/>
<text text-anchor="middle" x="1415" y="-68.2" font-family="Times,serif" font-size="14.00" fill="#000000">Он носит очки?</text>
</g>
<!-- start -->
<g id="node1" class="node">
<title>start</title>
<ellipse fill="none" stroke="#000000" cx="1398" cy="-445.2" rx="27.8228" ry="18"/>
<text text-anchor="middle" x="1398" y="-441" font-family="Times,serif" font-size="14.00" fill="#000000">start</text>
</g>
<!-- 0 -->
<g id="node2" class="node">
<title>0</title>
<ellipse fill="none" stroke="#000000" cx="1376" cy="-373.2" rx="27" ry="18"/>
<text text-anchor="middle" x="1376" y="-369" font-family="Times,serif" font-size="14.00" fill="#000000">0</text>
</g>
<!-- start&#45;&gt;0 -->
<g id="edge1" class="edge">
<title>start-&gt;0</title>
<path fill="none" stroke="#000000" d="M1392.5618,-427.4022C1390.1026,-419.3541 1387.1402,-409.6588 1384.4048,-400.7067"/>
<polygon fill="#000000" stroke="#000000" points="1387.7214,-399.5833 1381.4519,-391.0425 1381.0269,-401.6289 1387.7214,-399.5833"/>
</g>
<!-- 1 -->
<g id="node3" class="node">
<title>1</title>
<ellipse fill="none" stroke="#000000" cx="1452" cy="-373.2" rx="27" ry="18"/>
<text text-anchor="middle" x="1452" y="-369" font-family="Times,serif" font-size="14.00" fill="#000000">1</text>
</g>
<!-- start&#45;&gt;1 -->
<g id="edge2" class="edge">
<title>start-&gt;1</title>
<path fill="none" stroke="#000000" d="M1410.2534,-428.8621C1417.1577,-419.6564 1425.9177,-407.9764 1433.6285,-397.6953"/>
<polygon fill="#000000" stroke="#000000" points="1436.595,-399.5733 1439.7951,-389.4733 1430.995,-395.3733 1436.595,-399.5733"/>
</g>
<!-- 00 -->
<g id="node4" class="node">
<title>00</title>
<ellipse fill="none" stroke="#000000" cx="1376" cy="-288.4" rx="27" ry="18"/>
<text text-anchor="middle" x="1376" y="-284.2" font-family="Times,serif" font-size="14.00" fill="#000000">00</text>
</g>
<!-- 0&#45;&gt;00 -->
<g id="edge3" class="edge">
<title>0-&gt;00</title>
<path fill="none" stroke="#000000" d="M1376,-354.7997C1376,-343.6112 1376,-329.0983 1376,-316.4954"/>
<polygon fill="#000000" stroke="#000000" points="1379.5001,-316.4731 1376,-306.4731 1372.5001,-316.4731 1379.5001,-316.4731"/>
</g>
<!-- 01 -->
<g id="node5" class="node">
<title>01</title>
<ellipse fill="none" stroke="#000000" cx="1298" cy="-288.4" rx="27" ry="18"/>
<text text-anchor="middle" x="1298" y="-284.2" font-family="Times,serif" font-size="14.00" fill="#000000">01</text>
</g>
<!-- 0&#45;&gt;01 -->
<g id="edge4" class="edge">
<title>0-&gt;01</title>
<path fill="none" stroke="#000000" d="M1359.8193,-358.7123C1353.47,-352.8253 1346.2276,-345.8526 1340,-339.2 1332.1772,-330.8432 1324.0551,-321.2609 1317.0621,-312.6867"/>
<polygon fill="#000000" stroke="#000000" points="1319.748,-310.4416 1310.7501,-304.848 1314.2958,-314.8319 1319.748,-310.4416"/>
</g>
<!-- 10 -->
<g id="node6" class="node">
<title>10</title>
<ellipse fill="none" stroke="#000000" cx="1527" cy="-288.4" rx="27" ry="18"/>
<text text-anchor="middle" x="1527" y="-284.2" font-family="Times,serif" font-size="14.00" fill="#000000">10</text>
</g>
<!-- 1&#45;&gt;10 -->
<g id="edge5" class="edge">
<title>1-&gt;10</title>
<path fill="none" stroke="#000000" d="M1468.3055,-358.827C1474.6719,-352.9558 1481.8936,-345.964 1488,-339.2 1495.3762,-331.0295 1502.8799,-321.5811 1509.3094,-313.0652"/>
<polygon fill="#000000" stroke="#000000" points="1512.1886,-315.0584 1515.3362,-304.9419 1506.5669,-310.8875 1512.1886,-315.0584"/>
</g>
<!-- 11 -->
<g id="node7" class="node">
<title>11</title>
<ellipse fill="none" stroke="#000000" cx="1452" cy="-288.4" rx="27" ry="18"/>
<text text-anchor="middle" x="1452" y="-284.2" font-family="Times,serif" font-size="14.00" fill="#000000">11</text>
</g>
<!-- 1&#45;&gt;11 -->
<g id="edge6" class="edge">
<title>1-&gt;11</title>
<path fill="none" stroke="#000000" d="M1452,-354.7997C1452,-343.6112 1452,-329.0983 1452,-316.4954"/>
<polygon fill="#000000" stroke="#000000" points="1455.5001,-316.4731 1452,-306.4731 1448.5001,-316.4731 1455.5001,-316.4731"/>
</g>
<!-- 000 -->
<g id="node8" class="node">
<title>000</title>
<ellipse fill="none" stroke="#000000" cx="1378" cy="-203.6" rx="27" ry="18"/>
<text text-anchor="middle" x="1378" y="-199.4" font-family="Times,serif" font-size="14.00" fill="#000000">000</text>
</g>
<!-- 00&#45;&gt;000 -->
<g id="edge7" class="edge">
<title>00-&gt;000</title>
<path fill="none" stroke="#000000" d="M1376.434,-269.9997C1376.6978,-258.8112 1377.0401,-244.2983 1377.3374,-231.6954"/>
<polygon fill="#000000" stroke="#000000" points="1380.8369,-231.7529 1377.5737,-221.6731 1373.8388,-231.5878 1380.8369,-231.7529"/>
</g>
<!-- 001 -->
<g id="node9" class="node">
<title>001</title>
<ellipse fill="none" stroke="#000000" cx="1306" cy="-203.6" rx="27" ry="18"/>
<text text-anchor="middle" x="1306" y="-199.4" font-family="Times,serif" font-size="14.00" fill="#000000">001</text>
</g>
<!-- 00&#45;&gt;001 -->
<g id="edge8" class="edge">
<title>00-&gt;001</title>
<path fill="none" stroke="#000000" d="M1360.1966,-273.6918C1354.2604,-267.8901 1347.5993,-261.0348 1342,-254.4 1335.17,-246.3069 1328.2953,-236.9684 1322.4104,-228.5228"/>
<polygon fill="#000000" stroke="#000000" points="1325.2106,-226.417 1316.6793,-220.1346 1319.4308,-230.366 1325.2106,-226.417"/>
</g>
<!-- 010 -->
<g id="node10" class="node">
<title>010</title>
<ellipse fill="none" stroke="#000000" cx="1234" cy="-203.6" rx="27" ry="18"/>
<text text-anchor="middle" x="1234" y="-199.4" font-family="Times,serif" font-size="14.00" fill="#000000">010</text>
</g>
<!-- 01&#45;&gt;010 -->
<g id="edge9" class="edge">
<title>01-&gt;010</title>
<path fill="none" stroke="#000000" d="M1284.6533,-272.6783C1279.9327,-266.9917 1274.6443,-260.4749 1270,-254.4 1263.6657,-246.1145 1256.9923,-236.8584 1251.1353,-228.5403"/>
<polygon fill="#000000" stroke="#000000" points="1253.9703,-226.4869 1245.3756,-220.2916 1248.231,-230.4944 1253.9703,-226.4869"/>
</g>
<!-- 011 -->
<g id="node11" class="node">
<title>011</title>
<ellipse fill="none" stroke="#000000" cx="1162" cy="-203.6" rx="27" ry="18"/>
<text text-anchor="middle" x="1162" y="-199.4" font-family="Times,serif" font-size="14.00" fill="#000000">011</text>
</g>
<!-- 01&#45;&gt;011 -->
<g id="edge10" class="edge">
<title>01-&gt;011</title>
<path fill="none" stroke="#000000" d="M1271.6712,-284.1092C1250.1819,-279.5762 1219.8987,-270.7389 1198,-254.4 1189.163,-247.8066 1181.6529,-238.4027 1175.8152,-229.4746"/>
<polygon fill="#000000" stroke="#000000" points="1178.739,-227.5466 1170.5478,-220.8269 1172.7607,-231.188 1178.739,-227.5466"/>
</g>
<!-- 100 -->
<g id="node12" class="node">
<title>100</title>
<ellipse fill="none" stroke="#000000" cx="1666" cy="-203.6" rx="27" ry="18"/>
<text text-anchor="middle" x="1666" y="-199.4" font-family="Times,serif" font-size="14.00" fill="#000000">100</text>
</g>
<!-- 10&#45;&gt;100 -->
<g id="edge11" class="edge">
<title>10-&gt;100</title>
<path fill="none" stroke="#000000" d="M1553.6704,-284.3758C1575.8275,-279.9777 1607.2857,-271.1906 1630,-254.4 1638.8663,-247.846 1646.3823,-238.4501 1652.2166,-229.5174"/>
<polygon fill="#000000" stroke="#000000" points="1655.2746,-231.2247 1657.4779,-220.8615 1649.2929,-227.5888 1655.2746,-231.2247"/>
</g>
<!-- 101 -->
<g id="node13" class="node">
<title>101</title>
<ellipse fill="none" stroke="#000000" cx="1594" cy="-203.6" rx="27" ry="18"/>
<text text-anchor="middle" x="1594" y="-199.4" font-family="Times,serif" font-size="14.00" fill="#000000">101</text>
</g>
<!-- 10&#45;&gt;101 -->
<g id="edge12" class="edge">
<title>10-&gt;101</title>
<path fill="none" stroke="#000000" d="M1541.6102,-273.1812C1546.9308,-267.4329 1552.8901,-260.7462 1558,-254.4 1564.5409,-246.2765 1571.2651,-237.0604 1577.1053,-228.7291"/>
<polygon fill="#000000" stroke="#000000" points="1580.0207,-230.6668 1582.8267,-220.4503 1574.262,-226.6871 1580.0207,-230.6668"/>
</g>
<!-- 110 -->
<g id="node14" class="node">
<title>110</title>
<ellipse fill="none" stroke="#000000" cx="1522" cy="-203.6" rx="27" ry="18"/>
<text text-anchor="middle" x="1522" y="-199.4" font-family="Times,serif" font-size="14.00" fill="#000000">110</text>
</g>
<!-- 11&#45;&gt;110 -->
<g id="edge13" class="edge">
<title>11-&gt;110</title>
<path fill="none" stroke="#000000" d="M1467.8034,-273.6918C1473.7396,-267.8901 1480.4007,-261.0348 1486,-254.4 1492.83,-246.3069 1499.7047,-236.9684 1505.5896,-228.5228"/>
<polygon fill="#000000" stroke="#000000" points="1508.5692,-230.366 1511.3207,-220.1346 1502.7894,-226.417 1508.5692,-230.366"/>
</g>
<!-- 111 -->
<g id="node15" class="node">
<title>111</title>
<ellipse fill="none" stroke="#000000" cx="1450" cy="-203.6" rx="27" ry="18"/>
<text text-anchor="middle" x="1450" y="-199.4" font-family="Times,serif" font-size="14.00" fill="#000000">111</text>
</g>
<!-- 11&#45;&gt;111 -->
<g id="edge14" class="edge">
<title>11-&gt;111</title>
<path fill="none" stroke="#000000" d="M1451.566,-269.9997C1451.3022,-258.8112 1450.9599,-244.2983 1450.6626,-231.6954"/>
<polygon fill="#000000" stroke="#000000" points="1454.1612,-231.5878 1450.4263,-221.6731 1447.1631,-231.7529 1454.1612,-231.5878"/>
</g>
<!-- 0000 -->
<g id="node16" class="node">
<title>0000</title>
<ellipse fill="none" stroke="#000000" cx="1375" cy="-118.8" rx="30.2015" ry="18"/>
<text text-anchor="middle" x="1375" y="-114.6" font-family="Times,serif" font-size="14.00" fill="#000000">0000</text>
</g>
<!-- 000&#45;&gt;0000 -->
<g id="edge15" class="edge">
<title>000-&gt;0000</title>
<path fill="none" stroke="#000000" d="M1377.349,-185.1997C1376.9532,-174.0112 1376.4398,-159.4983 1375.9939,-146.8954"/>
<polygon fill="#000000" stroke="#000000" points="1379.4908,-146.7431 1375.6394,-136.8731 1372.4952,-146.9906 1379.4908,-146.7431"/>
</g>
<!-- 0001 -->
<g id="node17" class="node">
<title>0001</title>
<ellipse fill="none" stroke="#000000" cx="1296" cy="-118.8" rx="30.2015" ry="18"/>
<text text-anchor="middle" x="1296" y="-114.6" font-family="Times,serif" font-size="14.00" fill="#000000">0001</text>
</g>
<!-- 000&#45;&gt;0001 -->
<g id="edge16" class="edge">
<title>000-&gt;0001</title>
<path fill="none" stroke="#000000" d="M1359.6715,-190.2059C1352.0213,-184.2567 1343.2476,-176.9462 1336,-169.6 1328.1951,-161.689 1320.4448,-152.2994 1313.874,-143.758"/>
<polygon fill="#000000" stroke="#000000" points="1316.5412,-141.481 1307.7381,-135.5854 1310.9433,-145.6839 1316.5412,-141.481"/>
</g>
<!-- 0010 -->
<g id="node18" class="node">
<title>0010</title>
<ellipse fill="none" stroke="#000000" cx="1217" cy="-118.8" rx="30.2015" ry="18"/>
<text text-anchor="middle" x="1217" y="-114.6" font-family="Times,serif" font-size="14.00" fill="#000000">0010</text>
</g>
<!-- 001&#45;&gt;0010 -->
<g id="edge17" class="edge">
<title>001-&gt;0010</title>
<path fill="none" stroke="#000000" d="M1287.8698,-190.1084C1282.208,-186.0031 1275.8993,-181.5377 1270,-177.6 1264.3574,-173.8336 1262.0657,-174.1126 1257,-169.6 1248.5762,-162.0959 1240.6017,-152.6546 1234.022,-143.9535"/>
<polygon fill="#000000" stroke="#000000" points="1236.6561,-141.6248 1227.9422,-135.5983 1230.996,-145.7435 1236.6561,-141.6248"/>
</g>
<!-- 0011 -->
<g id="node19" class="node">
<title>0011</title>
<ellipse fill="none" stroke="#000000" cx="1138" cy="-118.8" rx="30.2015" ry="18"/>
<text text-anchor="middle" x="1138" y="-114.6" font-family="Times,serif" font-size="14.00" fill="#000000">0011</text>
</g>
<!-- 001&#45;&gt;0011 -->
<g id="edge18" class="edge">
<title>001-&gt;0011</title>
<path fill="none" stroke="#000000" d="M1289.8801,-189.1235C1284.0167,-184.6616 1277.0814,-180.2341 1270,-177.6 1231.5319,-163.291 1214.1116,-189.1063 1178,-169.6 1167.5648,-163.9633 1158.9297,-154.3262 1152.3864,-144.9509"/>
<polygon fill="#000000" stroke="#000000" points="1155.3274,-143.0534 1146.9736,-136.5369 1149.4404,-146.8406 1155.3274,-143.0534"/>
</g>
<!-- 0100 -->
<g id="node20" class="node">
<title>0100</title>
<ellipse fill="none" stroke="#000000" cx="1059" cy="-118.8" rx="30.2015" ry="18"/>
<text text-anchor="middle" x="1059" y="-114.6" font-family="Times,serif" font-size="14.00" fill="#000000">0100</text>
</g>
<!-- 010&#45;&gt;0100 -->
<g id="edge19" class="edge">
<title>010-&gt;0100</title>
<path fill="none" stroke="#000000" d="M1217.8892,-189.0988C1212.0266,-184.6349 1205.0894,-180.2124 1198,-177.6 1177.2897,-169.9683 1118.4516,-180.0305 1099,-169.6 1088.3962,-163.9139 1079.6596,-154.0836 1073.0856,-144.5763"/>
<polygon fill="#000000" stroke="#000000" points="1075.9885,-142.6187 1067.6647,-136.064 1070.0841,-146.3789 1075.9885,-142.6187"/>
</g>
<!-- 0101 -->
<g id="node21" class="node">
<title>0101</title>
<ellipse fill="none" stroke="#000000" cx="980" cy="-118.8" rx="30.2015" ry="18"/>
<text text-anchor="middle" x="980" y="-114.6" font-family="Times,serif" font-size="14.00" fill="#000000">0101</text>
</g>
<!-- 010&#45;&gt;0101 -->
<g id="edge20" class="edge">
<title>010-&gt;0101</title>
<path fill="none" stroke="#000000" d="M1217.9412,-188.9536C1212.0828,-184.4781 1205.1349,-180.0854 1198,-177.6 1160.6082,-164.5748 1055.2238,-187.6856 1020,-169.6 1009.2963,-164.1042 1000.5435,-154.3048 993.9844,-144.7691"/>
<polygon fill="#000000" stroke="#000000" points="996.8828,-142.8039 988.5843,-136.2171 990.964,-146.5412 996.8828,-142.8039"/>
</g>
<!-- 0110 -->
<g id="node22" class="node">
<title>0110</title>
<ellipse fill="none" stroke="#000000" cx="901" cy="-118.8" rx="30.2015" ry="18"/>
<text text-anchor="middle" x="901" y="-114.6" font-family="Times,serif" font-size="14.00" fill="#000000">0110</text>
</g>
<!-- 011&#45;&gt;0110 -->
<g id="edge21" class="edge">
<title>011-&gt;0110</title>
<path fill="none" stroke="#000000" d="M1135.1135,-201.9226C1083.6691,-198.3179 973.5228,-188.5778 941,-169.6 930.8607,-163.6835 922.3303,-154.1234 915.7862,-144.884"/>
<polygon fill="#000000" stroke="#000000" points="918.5401,-142.7007 910.133,-136.2532 912.6845,-146.5362 918.5401,-142.7007"/>
</g>
<!-- 0111 -->
<g id="node23" class="node">
<title>0111</title>
<ellipse fill="none" stroke="#000000" cx="822" cy="-118.8" rx="30.2015" ry="18"/>
<text text-anchor="middle" x="822" y="-114.6" font-family="Times,serif" font-size="14.00" fill="#000000">0111</text>
</g>
<!-- 011&#45;&gt;0111 -->
<g id="edge22" class="edge">
<title>011-&gt;0111</title>
<path fill="none" stroke="#000000" d="M1134.7247,-203.1611C1069.8839,-201.7011 908.4762,-195.4944 862,-169.6 851.745,-163.8864 843.1934,-154.3635 836.6647,-145.0969"/>
<polygon fill="#000000" stroke="#000000" points="839.4157,-142.9065 831.0356,-136.4238 833.544,-146.7175 839.4157,-142.9065"/>
</g>
<!-- 1000 -->
<g id="node24" class="node">
<title>1000</title>
<ellipse fill="none" stroke="#000000" cx="2007" cy="-118.8" rx="30.2015" ry="18"/>
<text text-anchor="middle" x="2007" y="-114.6" font-family="Times,serif" font-size="14.00" fill="#000000">1000</text>
</g>
<!-- 100&#45;&gt;1000 -->
<g id="edge23" class="edge">
<title>100-&gt;1000</title>
<path fill="none" stroke="#000000" d="M1693.3659,-203.171C1758.422,-201.7328 1920.366,-195.5709 1967,-169.6 1977.256,-163.8883 1985.8079,-154.3657 1992.3364,-145.0989"/>
<polygon fill="#000000" stroke="#000000" points="1995.4573,-146.7192 1997.9653,-136.4254 1989.5854,-142.9085 1995.4573,-146.7192"/>
</g>
<!-- 1001 -->
<g id="node25" class="node">
<title>1001</title>
<ellipse fill="none" stroke="#000000" cx="1928" cy="-118.8" rx="30.2015" ry="18"/>
<text text-anchor="middle" x="1928" y="-114.6" font-family="Times,serif" font-size="14.00" fill="#000000">1001</text>
</g>
<!-- 100&#45;&gt;1001 -->
<g id="edge24" class="edge">
<title>100-&gt;1001</title>
<path fill="none" stroke="#000000" d="M1693.0076,-201.9354C1744.6839,-198.3532 1855.327,-188.6507 1888,-169.6 1898.1413,-163.6869 1906.6721,-154.1275 1913.2159,-144.8876"/>
<polygon fill="#000000" stroke="#000000" points="1916.318,-146.5393 1918.8687,-136.2561 1910.462,-142.7042 1916.318,-146.5393"/>
</g>
<!-- 1010 -->
<g id="node26" class="node">
<title>1010</title>
<ellipse fill="none" stroke="#000000" cx="1849" cy="-118.8" rx="30.2015" ry="18"/>
<text text-anchor="middle" x="1849" y="-114.6" font-family="Times,serif" font-size="14.00" fill="#000000">1010</text>
</g>
<!-- 101&#45;&gt;1010 -->
<g id="edge25" class="edge">
<title>101-&gt;1010</title>
<path fill="none" stroke="#000000" d="M1610.0584,-188.9526C1615.9168,-184.477 1622.8648,-180.0845 1630,-177.6 1667.6031,-164.5065 1773.5765,-187.7826 1809,-169.6 1819.7044,-164.1055 1828.4573,-154.3064 1835.0163,-144.7705"/>
<polygon fill="#000000" stroke="#000000" points="1838.0369,-146.5424 1840.4162,-136.2181 1832.1179,-142.8052 1838.0369,-146.5424"/>
</g>
<!-- 1011 -->
<g id="node27" class="node">
<title>1011</title>
<ellipse fill="none" stroke="#000000" cx="1770" cy="-118.8" rx="30.2015" ry="18"/>
<text text-anchor="middle" x="1770" y="-114.6" font-family="Times,serif" font-size="14.00" fill="#000000">1011</text>
</g>
<!-- 101&#45;&gt;1011 -->
<g id="edge26" class="edge">
<title>101-&gt;1011</title>
<path fill="none" stroke="#000000" d="M1610.1096,-189.0955C1615.9721,-184.6314 1622.9096,-180.2096 1630,-177.6 1650.9213,-169.9001 1710.349,-180.1273 1730,-169.6 1740.6061,-163.9182 1749.3431,-154.0886 1755.9167,-144.5806"/>
<polygon fill="#000000" stroke="#000000" points="1758.9186,-146.3825 1761.3372,-136.0674 1753.0139,-142.6229 1758.9186,-146.3825"/>
</g>
<!-- 1100 -->
<g id="node28" class="node">
<title>1100</title>
<ellipse fill="none" stroke="#000000" cx="1691" cy="-118.8" rx="30.2015" ry="18"/>
<text text-anchor="middle" x="1691" y="-114.6" font-family="Times,serif" font-size="14.00" fill="#000000">1100</text>
</g>
<!-- 110&#45;&gt;1100 -->
<g id="edge27" class="edge">
<title>110-&gt;1100</title>
<path fill="none" stroke="#000000" d="M1538.1185,-189.1197C1543.9818,-184.6575 1550.9174,-180.2308 1558,-177.6 1596.8898,-163.1547 1614.4896,-189.2998 1651,-169.6 1661.4378,-163.9681 1670.0733,-154.3319 1676.6163,-144.9559"/>
<polygon fill="#000000" stroke="#000000" points="1679.5628,-146.8448 1682.0285,-136.5409 1673.6754,-143.0582 1679.5628,-146.8448"/>
</g>
<!-- 1101 -->
<g id="node29" class="node">
<title>1101</title>
<ellipse fill="none" stroke="#000000" cx="1612" cy="-118.8" rx="30.2015" ry="18"/>
<text text-anchor="middle" x="1612" y="-114.6" font-family="Times,serif" font-size="14.00" fill="#000000">1101</text>
</g>
<!-- 110&#45;&gt;1101 -->
<g id="edge28" class="edge">
<title>110-&gt;1101</title>
<path fill="none" stroke="#000000" d="M1540.0524,-189.9897C1545.711,-185.8796 1552.0374,-181.4413 1558,-177.6 1564.0245,-173.7188 1566.5721,-174.2793 1572,-169.6 1580.6336,-162.1571 1588.7117,-152.6258 1595.3165,-143.834"/>
<polygon fill="#000000" stroke="#000000" points="1598.1553,-145.8812 1601.1676,-135.7236 1592.4784,-141.7857 1598.1553,-145.8812"/>
</g>
<!-- 1110 -->
<g id="node30" class="node">
<title>1110</title>
<ellipse fill="none" stroke="#000000" cx="1533" cy="-118.8" rx="30.2015" ry="18"/>
<text text-anchor="middle" x="1533" y="-114.6" font-family="Times,serif" font-size="14.00" fill="#000000">1110</text>
</g>
<!-- 111&#45;&gt;1110 -->
<g id="edge29" class="edge">
<title>111-&gt;1110</title>
<path fill="none" stroke="#000000" d="M1468.7895,-190.2681C1476.626,-184.3295 1485.605,-177.01 1493,-169.6 1500.8501,-161.7339 1508.6107,-152.3545 1515.1771,-143.8087"/>
<polygon fill="#000000" stroke="#000000" points="1518.1111,-145.7298 1521.3044,-135.6276 1512.5083,-141.5335 1518.1111,-145.7298"/>
</g>
<!-- 1111 -->
<g id="node31" class="node">
<title>1111</title>
<ellipse fill="none" stroke="#000000" cx="1454" cy="-118.8" rx="30.2015" ry="18"/>
<text text-anchor="middle" x="1454" y="-114.6" font-family="Times,serif" font-size="14.00" fill="#000000">1111</text>
</g>
<!-- 111&#45;&gt;1111 -->
<g id="edge30" class="edge">
<title>111-&gt;1111</title>
<path fill="none" stroke="#000000" d="M1450.8679,-185.1997C1451.3957,-174.0112 1452.0803,-159.4983 1452.6747,-146.8954"/>
<polygon fill="#000000" stroke="#000000" points="1456.1723,-147.0269 1453.1475,-136.8731 1449.1801,-146.6971 1456.1723,-147.0269"/>
</g>
<!-- 00000 -->
<g id="node32" class="node">
<title>00000</title>
<ellipse fill="none" stroke="#000000" cx="1371" cy="-34" rx="35.3587" ry="18"/>
<text text-anchor="middle" x="1371" y="-29.8" font-family="Times,serif" font-size="14.00" fill="#000000">00000</text>
</g>
<!-- 0000&#45;&gt;00000 -->
<g id="edge31" class="edge">
<title>0000-&gt;00000</title>
<path fill="none" stroke="#000000" d="M1374.1321,-100.3997C1373.6043,-89.2112 1372.9197,-74.6983 1372.3253,-62.0954"/>
<polygon fill="#000000" stroke="#000000" points="1375.8199,-61.8971 1371.8525,-52.0731 1368.8277,-62.2269 1375.8199,-61.8971"/>
</g>
<!-- 00001 -->
<g id="node33" class="node">
<title>00001</title>
<ellipse fill="none" stroke="#000000" cx="1283" cy="-34" rx="35.3587" ry="18"/>
<text text-anchor="middle" x="1283" y="-29.8" font-family="Times,serif" font-size="14.00" fill="#000000">00001</text>
</g>
<!-- 0000&#45;&gt;00001 -->
<g id="edge32" class="edge">
<title>0000-&gt;00001</title>
<path fill="none" stroke="#000000" d="M1354.09,-105.6015C1345.3532,-99.6854 1335.3208,-92.3467 1327,-84.8 1318.3548,-76.9591 1309.7477,-67.4895 1302.4689,-58.8612"/>
<polygon fill="#000000" stroke="#000000" points="1304.9964,-56.4244 1295.9394,-50.9271 1299.5914,-60.8726 1304.9964,-56.4244"/>
</g>
<!-- 00010 -->
<g id="node34" class="node">
<title>00010</title>
<ellipse fill="none" stroke="#000000" cx="1195" cy="-34" rx="35.3587" ry="18"/>
<text text-anchor="middle" x="1195" y="-29.8" font-family="Times,serif" font-size="14.00" fill="#000000">00010</text>
</g>
<!-- 0001&#45;&gt;00010 -->
<g id="edge33" class="edge">
<title>0001-&gt;00010</title>
<path fill="none" stroke="#000000" d="M1275.9814,-105.0247C1269.6957,-100.9079 1262.6573,-96.5073 1256,-92.8 1248.7046,-88.7373 1245.6555,-89.843 1239,-84.8 1229.4592,-77.5707 1220.4988,-67.9771 1213.186,-59.0751"/>
<polygon fill="#000000" stroke="#000000" points="1215.9033,-56.8686 1206.9638,-51.182 1210.406,-61.2021 1215.9033,-56.8686"/>
</g>
<!-- 00011 -->
<g id="node35" class="node">
<title>00011</title>
<ellipse fill="none" stroke="#000000" cx="1107" cy="-34" rx="35.3587" ry="18"/>
<text text-anchor="middle" x="1107" y="-29.8" font-family="Times,serif" font-size="14.00" fill="#000000">00011</text>
</g>
<!-- 0001&#45;&gt;00011 -->
<g id="edge34" class="edge">
<title>0001-&gt;00011</title>
<path fill="none" stroke="#000000" d="M1277.884,-104.2858C1271.3527,-99.8209 1263.6888,-95.4011 1256,-92.8 1233.8331,-85.3011 1171.9003,-95.3254 1151,-84.8 1139.7162,-79.1174 1130.106,-69.1536 1122.7724,-59.5468"/>
<polygon fill="#000000" stroke="#000000" points="1125.5707,-57.4424 1116.9289,-51.313 1119.8622,-61.4937 1125.5707,-57.4424"/>
</g>
<!-- 00100 -->
<g id="node36" class="node">
<title>00100</title>
<ellipse fill="none" stroke="#000000" cx="1019" cy="-34" rx="35.3587" ry="18"/>
<text text-anchor="middle" x="1019" y="-29.8" font-family="Times,serif" font-size="14.00" fill="#000000">00100</text>
</g>
<!-- 0010&#45;&gt;00100 -->
<g id="edge35" class="edge">
<title>0010-&gt;00100</title>
<path fill="none" stroke="#000000" d="M1198.8929,-104.2595C1192.3623,-99.7925 1184.6966,-95.3781 1177,-92.8 1152.9194,-84.7339 1085.7158,-96.1547 1063,-84.8 1051.6992,-79.1512 1042.0864,-69.1926 1034.7554,-59.5805"/>
<polygon fill="#000000" stroke="#000000" points="1037.5531,-57.475 1028.9154,-51.3399 1031.8419,-61.5225 1037.5531,-57.475"/>
</g>
<!-- 00101 -->
<g id="node37" class="node">
<title>00101</title>
<ellipse fill="none" stroke="#000000" cx="931" cy="-34" rx="35.3587" ry="18"/>
<text text-anchor="middle" x="931" y="-29.8" font-family="Times,serif" font-size="14.00" fill="#000000">00101</text>
</g>
<!-- 0010&#45;&gt;00101 -->
<g id="edge36" class="edge">
<title>0010-&gt;00101</title>
<path fill="none" stroke="#000000" d="M1198.9367,-104.1251C1192.4097,-99.6474 1184.735,-95.2605 1177,-92.8 1134.1897,-79.182 1015.485,-104.2714 975,-84.8 963.6145,-79.3241 953.9886,-69.392 946.6708,-59.7532"/>
<polygon fill="#000000" stroke="#000000" points="949.4648,-57.6419 940.8478,-51.4776 943.7399,-61.6701 949.4648,-57.6419"/>
</g>
<!-- 00110 -->
<g id="node38" class="node">
<title>00110</title>
<ellipse fill="none" stroke="#000000" cx="843" cy="-34" rx="35.3587" ry="18"/>
<text text-anchor="middle" x="843" y="-29.8" font-family="Times,serif" font-size="14.00" fill="#000000">00110</text>
</g>
<!-- 0011&#45;&gt;00110 -->
<g id="edge37" class="edge">
<title>0011-&gt;00110</title>
<path fill="none" stroke="#000000" d="M1119.9391,-104.1177C1113.4122,-99.6393 1105.737,-95.254 1098,-92.8 1075.6366,-85.707 908.1516,-94.951 887,-84.8 875.6098,-79.3337 865.9833,-69.4031 858.6661,-59.7628"/>
<polygon fill="#000000" stroke="#000000" points="861.46,-57.6511 852.8442,-51.4852 855.7344,-61.6782 861.46,-57.6511"/>
</g>
<!-- 00111 -->
<g id="node39" class="node">
<title>00111</title>
<ellipse fill="none" stroke="#000000" cx="755" cy="-34" rx="35.3587" ry="18"/>
<text text-anchor="middle" x="755" y="-29.8" font-family="Times,serif" font-size="14.00" fill="#000000">00111</text>
</g>
<!-- 0011&#45;&gt;00111 -->
<g id="edge38" class="edge">
<title>0011-&gt;00111</title>
<path fill="none" stroke="#000000" d="M1119.9546,-104.0684C1113.429,-99.586 1105.7506,-95.2108 1098,-92.8 1066.2656,-82.9291 829.042,-99.0121 799,-84.8 787.5796,-79.3973 777.9483,-69.4765 770.6359,-59.8263"/>
<polygon fill="#000000" stroke="#000000" points="773.4283,-57.7123 764.8201,-51.5358 767.6977,-61.7324 773.4283,-57.7123"/>
</g>
<!-- 01000 -->
<g id="node40" class="node">
<title>01000</title>
<ellipse fill="none" stroke="#000000" cx="667" cy="-34" rx="35.3587" ry="18"/>
<text text-anchor="middle" x="667" y="-29.8" font-family="Times,serif" font-size="14.00" fill="#000000">01000</text>
</g>
<!-- 0100&#45;&gt;01000 -->
<g id="edge39" class="edge">
<title>0100-&gt;01000</title>
<path fill="none" stroke="#000000" d="M1040.9557,-104.0649C1034.4301,-99.5823 1026.7515,-95.2078 1019,-92.8 986.3071,-82.6449 741.9513,-99.4275 711,-84.8 699.5774,-79.4017 689.9459,-69.4816 682.6338,-59.8308"/>
<polygon fill="#000000" stroke="#000000" points="685.4261,-57.7166 676.8184,-51.5394 679.6952,-61.7362 685.4261,-57.7166"/>
</g>
<!-- 01001 -->
<g id="node41" class="node">
<title>01001</title>
<ellipse fill="none" stroke="#000000" cx="579" cy="-34" rx="35.3587" ry="18"/>
<text text-anchor="middle" x="579" y="-29.8" font-family="Times,serif" font-size="14.00" fill="#000000">01001</text>
</g>
<!-- 0100&#45;&gt;01001 -->
<g id="edge40" class="edge">
<title>0100-&gt;01001</title>
<path fill="none" stroke="#000000" d="M1040.9636,-104.0393C1034.4387,-99.5547 1026.7585,-95.1854 1019,-92.8 976.9344,-79.8665 662.8434,-103.4895 623,-84.8 611.4802,-79.3964 601.7904,-69.3778 594.462,-59.6568"/>
<polygon fill="#000000" stroke="#000000" points="597.2346,-57.5139 588.6431,-51.3142 591.4932,-61.5185 597.2346,-57.5139"/>
</g>
<!-- 01010 -->
<g id="node42" class="node">
<title>01010</title>
<ellipse fill="none" stroke="#000000" cx="491" cy="-34" rx="35.3587" ry="18"/>
<text text-anchor="middle" x="491" y="-29.8" font-family="Times,serif" font-size="14.00" fill="#000000">01010</text>
</g>
<!-- 0101&#45;&gt;01010 -->
<g id="edge41" class="edge">
<title>0101-&gt;01010</title>
<path fill="none" stroke="#000000" d="M961.9642,-104.0373C955.4393,-99.5525 947.759,-95.1837 940,-92.8 896.9758,-79.5823 575.7528,-103.9049 535,-84.8 523.479,-79.399 513.789,-69.3808 506.4608,-59.6594"/>
<polygon fill="#000000" stroke="#000000" points="509.2334,-57.5163 500.6421,-51.3162 503.4918,-61.5206 509.2334,-57.5163"/>
</g>
<!-- 01011 -->
<g id="node43" class="node">
<title>01011</title>
<ellipse fill="none" stroke="#000000" cx="403" cy="-34" rx="35.3587" ry="18"/>
<text text-anchor="middle" x="403" y="-29.8" font-family="Times,serif" font-size="14.00" fill="#000000">01011</text>
</g>
<!-- 0101&#45;&gt;01011 -->
<g id="edge42" class="edge">
<title>0101-&gt;01011</title>
<path fill="none" stroke="#000000" d="M961.969,-104.0217C955.4445,-99.5357 947.7632,-95.17 940,-92.8 913.8012,-84.8018 471.8228,-96.3836 447,-84.8 435.4695,-79.4193 425.7781,-69.4041 418.4514,-59.6794"/>
<polygon fill="#000000" stroke="#000000" points="421.2235,-57.5356 412.6347,-51.3321 415.4803,-61.5377 421.2235,-57.5356"/>
</g>
<!-- 01100 -->
<g id="node44" class="node">
<title>01100</title>
<ellipse fill="none" stroke="#000000" cx="315" cy="-34" rx="35.3587" ry="18"/>
<text text-anchor="middle" x="315" y="-29.8" font-family="Times,serif" font-size="14.00" fill="#000000">01100</text>
</g>
<!-- 0110&#45;&gt;01100 -->
<g id="edge43" class="edge">
<title>0110-&gt;01100</title>
<path fill="none" stroke="#000000" d="M882.9694,-104.0204C876.4449,-99.5343 868.7635,-95.1689 861,-92.8 834.3218,-84.6597 384.2775,-96.5913 359,-84.8 347.4687,-79.4209 337.7772,-69.406 330.4506,-59.6811"/>
<polygon fill="#000000" stroke="#000000" points="333.2227,-57.5372 324.6341,-51.3334 327.4794,-61.5391 333.2227,-57.5372"/>
</g>
<!-- 01101 -->
<g id="node45" class="node">
<title>01101</title>
<ellipse fill="none" stroke="#000000" cx="227" cy="-34" rx="35.3587" ry="18"/>
<text text-anchor="middle" x="227" y="-29.8" font-family="Times,serif" font-size="14.00" fill="#000000">01101</text>
</g>
<!-- 0110&#45;&gt;01101 -->
<g id="edge44" class="edge">
<title>0110-&gt;01101</title>
<path fill="none" stroke="#000000" d="M882.9726,-104.0099C876.4484,-99.5229 868.7663,-95.1596 861,-92.8 829.635,-83.2704 300.724,-98.6225 271,-84.8 259.4623,-79.4346 249.7699,-69.4218 242.4443,-59.6947"/>
<polygon fill="#000000" stroke="#000000" points="245.2161,-57.5502 236.6291,-51.3442 239.4717,-61.5505 245.2161,-57.5502"/>
</g>
<!-- 01110 -->
<g id="node46" class="node">
<title>01110</title>
<ellipse fill="none" stroke="#000000" cx="139" cy="-34" rx="35.3587" ry="18"/>
<text text-anchor="middle" x="139" y="-29.8" font-family="Times,serif" font-size="14.00" fill="#000000">01110</text>
</g>
<!-- 0111&#45;&gt;01110 -->
<g id="edge45" class="edge">
<title>0111-&gt;01110</title>
<path fill="none" stroke="#000000" d="M791.3103,-118.569C671.337,-117.4764 237.9457,-111.687 183,-84.8 171.6519,-79.2469 162.0318,-69.303 154.7081,-59.6761"/>
<polygon fill="#000000" stroke="#000000" points="157.5039,-57.5675 148.8777,-51.4161 151.785,-61.6043 157.5039,-57.5675"/>
</g>
<!-- 01111 -->
<g id="node47" class="node">
<title>01111</title>
<ellipse fill="none" stroke="#000000" cx="51" cy="-34" rx="35.3587" ry="18"/>
<text text-anchor="middle" x="51" y="-29.8" font-family="Times,serif" font-size="14.00" fill="#000000">01111</text>
</g>
<!-- 0111&#45;&gt;01111 -->
<g id="edge46" class="edge">
<title>0111-&gt;01111</title>
<path fill="none" stroke="#000000" d="M791.3592,-118.0405C657.1906,-114.6288 126.757,-100.2137 95,-84.8 83.6341,-79.2834 74.0113,-69.3451 66.6904,-59.7126"/>
<polygon fill="#000000" stroke="#000000" points="69.4853,-57.6027 60.8635,-51.4452 63.7636,-61.6354 69.4853,-57.6027"/>
</g>
<!-- 10000 -->
<g id="node48" class="node">
<title>10000</title>
<ellipse fill="none" stroke="#000000" cx="2779" cy="-34" rx="35.3587" ry="18"/>
<text text-anchor="middle" x="2779" y="-29.8" font-family="Times,serif" font-size="14.00" fill="#000000">10000</text>
</g>
<!-- 1000&#45;&gt;10000 -->
<g id="edge47" class="edge">
<title>1000-&gt;10000</title>
<path fill="none" stroke="#000000" d="M2037.683,-118.0414C2172.036,-114.6339 2703.199,-100.2338 2735,-84.8 2746.3661,-79.2838 2755.9889,-69.3455 2763.3098,-59.7129"/>
<polygon fill="#000000" stroke="#000000" points="2766.2366,-61.6357 2769.1366,-51.4455 2760.5149,-57.603 2766.2366,-61.6357"/>
</g>
<!-- 10001 -->
<g id="node49" class="node">
<title>10001</title>
<ellipse fill="none" stroke="#000000" cx="2691" cy="-34" rx="35.3587" ry="18"/>
<text text-anchor="middle" x="2691" y="-29.8" font-family="Times,serif" font-size="14.00" fill="#000000">10001</text>
</g>
<!-- 1000&#45;&gt;10001 -->
<g id="edge48" class="edge">
<title>1000-&gt;10001</title>
<path fill="none" stroke="#000000" d="M2037.7376,-118.5714C2157.8985,-117.4875 2591.9675,-111.7267 2647,-84.8 2658.3483,-79.2474 2667.9685,-69.3036 2675.2921,-59.6766"/>
<polygon fill="#000000" stroke="#000000" points="2678.2152,-61.6047 2681.1225,-51.4165 2672.4964,-57.568 2678.2152,-61.6047"/>
</g>
<!-- 10010 -->
<g id="node50" class="node">
<title>10010</title>
<ellipse fill="none" stroke="#000000" cx="2603" cy="-34" rx="35.3587" ry="18"/>
<text text-anchor="middle" x="2603" y="-29.8" font-family="Times,serif" font-size="14.00" fill="#000000">10010</text>
</g>
<!-- 1001&#45;&gt;10010 -->
<g id="edge49" class="edge">
<title>1001-&gt;10010</title>
<path fill="none" stroke="#000000" d="M1946.0274,-104.0098C1952.5516,-99.5228 1960.2336,-95.1596 1968,-92.8 1999.4183,-83.2546 2529.2255,-98.6456 2559,-84.8 2570.5377,-79.4348 2580.2302,-69.4219 2587.5557,-59.6948"/>
<polygon fill="#000000" stroke="#000000" points="2590.5284,-61.5507 2593.371,-51.3443 2584.784,-57.5503 2590.5284,-61.5507"/>
</g>
<!-- 10011 -->
<g id="node51" class="node">
<title>10011</title>
<ellipse fill="none" stroke="#000000" cx="2515" cy="-34" rx="35.3587" ry="18"/>
<text text-anchor="middle" x="2515" y="-29.8" font-family="Times,serif" font-size="14.00" fill="#000000">10011</text>
</g>
<!-- 1001&#45;&gt;10011 -->
<g id="edge50" class="edge">
<title>1001-&gt;10011</title>
<path fill="none" stroke="#000000" d="M1946.0306,-104.0203C1952.555,-99.5341 1960.2364,-95.1687 1968,-92.8 1994.7314,-84.644 2445.672,-96.6144 2471,-84.8 2482.5314,-79.4211 2492.2229,-69.4062 2499.5495,-59.6813"/>
<polygon fill="#000000" stroke="#000000" points="2502.5207,-61.5392 2505.366,-51.3336 2496.7774,-57.5374 2502.5207,-61.5392"/>
</g>
<!-- 10100 -->
<g id="node52" class="node">
<title>10100</title>
<ellipse fill="none" stroke="#000000" cx="2427" cy="-34" rx="35.3587" ry="18"/>
<text text-anchor="middle" x="2427" y="-29.8" font-family="Times,serif" font-size="14.00" fill="#000000">10100</text>
</g>
<!-- 1010&#45;&gt;10100 -->
<g id="edge51" class="edge">
<title>1010-&gt;10100</title>
<path fill="none" stroke="#000000" d="M1867.031,-104.0216C1873.5555,-99.5355 1881.2368,-95.1699 1889,-92.8 1915.2521,-84.786 2358.1267,-96.4067 2383,-84.8 2394.5306,-79.4195 2404.222,-69.4043 2411.5487,-59.6796"/>
<polygon fill="#000000" stroke="#000000" points="2414.5198,-61.5378 2417.3654,-51.3323 2408.7766,-57.5358 2414.5198,-61.5378"/>
</g>
<!-- 10101 -->
<g id="node53" class="node">
<title>10101</title>
<ellipse fill="none" stroke="#000000" cx="2339" cy="-34" rx="35.3587" ry="18"/>
<text text-anchor="middle" x="2339" y="-29.8" font-family="Times,serif" font-size="14.00" fill="#000000">10101</text>
</g>
<!-- 1010&#45;&gt;10101 -->
<g id="edge52" class="edge">
<title>1010-&gt;10101</title>
<path fill="none" stroke="#000000" d="M1867.0358,-104.0371C1873.5606,-99.5523 1881.2409,-95.1835 1889,-92.8 1932.1307,-79.5507 2254.1461,-103.9511 2295,-84.8 2306.5211,-79.3992 2316.2111,-69.3811 2323.5393,-59.6596"/>
<polygon fill="#000000" stroke="#000000" points="2326.5084,-61.5209 2329.358,-51.3164 2320.7668,-57.5166 2326.5084,-61.5209"/>
</g>
<!-- 10110 -->
<g id="node54" class="node">
<title>10110</title>
<ellipse fill="none" stroke="#000000" cx="2251" cy="-34" rx="35.3587" ry="18"/>
<text text-anchor="middle" x="2251" y="-29.8" font-family="Times,serif" font-size="14.00" fill="#000000">10110</text>
</g>
<!-- 1011&#45;&gt;10110 -->
<g id="edge53" class="edge">
<title>1011-&gt;10110</title>
<path fill="none" stroke="#000000" d="M1788.0364,-104.0391C1794.5613,-99.5544 1802.2415,-95.1852 1810,-92.8 1852.1721,-79.8349 2167.0556,-103.5357 2207,-84.8 2218.5199,-79.3967 2228.2097,-69.3782 2235.5381,-59.6571"/>
<polygon fill="#000000" stroke="#000000" points="2238.5069,-61.5187 2241.357,-51.3144 2232.7655,-57.5142 2238.5069,-61.5187"/>
</g>
<!-- 10111 -->
<g id="node55" class="node">
<title>10111</title>
<ellipse fill="none" stroke="#000000" cx="2163" cy="-34" rx="35.3587" ry="18"/>
<text text-anchor="middle" x="2163" y="-29.8" font-family="Times,serif" font-size="14.00" fill="#000000">10111</text>
</g>
<!-- 1011&#45;&gt;10111 -->
<g id="edge54" class="edge">
<title>1011-&gt;10111</title>
<path fill="none" stroke="#000000" d="M1788.0442,-104.0645C1794.5697,-99.5819 1802.2484,-95.2075 1810,-92.8 1842.7994,-82.6133 2087.9476,-99.4737 2119,-84.8 2130.4228,-79.4022 2140.0544,-69.4822 2147.3664,-59.8312"/>
<polygon fill="#000000" stroke="#000000" points="2150.3051,-61.7366 2153.1818,-51.5398 2144.5742,-57.7171 2150.3051,-61.7366"/>
</g>
<!-- 11000 -->
<g id="node56" class="node">
<title>11000</title>
<ellipse fill="none" stroke="#000000" cx="2075" cy="-34" rx="35.3587" ry="18"/>
<text text-anchor="middle" x="2075" y="-29.8" font-family="Times,serif" font-size="14.00" fill="#000000">11000</text>
</g>
<!-- 1100&#45;&gt;11000 -->
<g id="edge55" class="edge">
<title>1100-&gt;11000</title>
<path fill="none" stroke="#000000" d="M1709.0453,-104.068C1715.5709,-99.5856 1723.2493,-95.2105 1731,-92.8 1762.8409,-82.8975 2000.857,-99.0583 2031,-84.8 2042.4207,-79.3978 2052.052,-69.4771 2059.3644,-59.8268"/>
<polygon fill="#000000" stroke="#000000" points="2062.3026,-61.7328 2065.1801,-51.5362 2056.572,-57.7128 2062.3026,-61.7328"/>
</g>
<!-- 11001 -->
<g id="node57" class="node">
<title>11001</title>
<ellipse fill="none" stroke="#000000" cx="1987" cy="-34" rx="35.3587" ry="18"/>
<text text-anchor="middle" x="1987" y="-29.8" font-family="Times,serif" font-size="14.00" fill="#000000">11001</text>
</g>
<!-- 1100&#45;&gt;11001 -->
<g id="edge56" class="edge">
<title>1100-&gt;11001</title>
<path fill="none" stroke="#000000" d="M1709.0607,-104.1169C1715.5875,-99.6385 1723.2627,-95.2533 1731,-92.8 1753.4699,-85.6754 1921.7474,-94.9971 1943,-84.8 1954.3906,-79.3347 1964.0173,-69.4043 1971.3343,-59.7638"/>
<polygon fill="#000000" stroke="#000000" points="1974.2662,-61.6791 1977.1562,-51.486 1968.5405,-57.6521 1974.2662,-61.6791"/>
</g>
<!-- 11010 -->
<g id="node58" class="node">
<title>11010</title>
<ellipse fill="none" stroke="#000000" cx="1899" cy="-34" rx="35.3587" ry="18"/>
<text text-anchor="middle" x="1899" y="-29.8" font-family="Times,serif" font-size="14.00" fill="#000000">11010</text>
</g>
<!-- 1101&#45;&gt;11010 -->
<g id="edge57" class="edge">
<title>1101-&gt;11010</title>
<path fill="none" stroke="#000000" d="M1630.063,-104.1243C1636.59,-99.6464 1644.2648,-95.2597 1652,-92.8 1695.0232,-79.1189 1814.313,-104.3637 1855,-84.8 1866.3861,-79.3252 1876.012,-69.3933 1883.3298,-59.7543"/>
<polygon fill="#000000" stroke="#000000" points="1886.2607,-61.671 1889.1526,-51.4784 1880.5358,-57.643 1886.2607,-61.671"/>
</g>
<!-- 11011 -->
<g id="node59" class="node">
<title>11011</title>
<ellipse fill="none" stroke="#000000" cx="1811" cy="-34" rx="35.3587" ry="18"/>
<text text-anchor="middle" x="1811" y="-29.8" font-family="Times,serif" font-size="14.00" fill="#000000">11011</text>
</g>
<!-- 1101&#45;&gt;11011 -->
<g id="edge58" class="edge">
<title>1101-&gt;11011</title>
<path fill="none" stroke="#000000" d="M1630.1063,-104.2568C1636.6367,-99.7896 1644.3026,-95.3757 1652,-92.8 1676.2933,-84.6708 1744.0824,-96.2468 1767,-84.8 1778.3025,-79.1547 1787.9156,-69.1965 1795.2463,-59.584"/>
<polygon fill="#000000" stroke="#000000" points="1798.1602,-61.5255 1801.086,-51.3426 1792.4487,-57.4784 1798.1602,-61.5255"/>
</g>
<!-- 11100 -->
<g id="node60" class="node">
<title>11100</title>
<ellipse fill="none" stroke="#000000" cx="1723" cy="-34" rx="35.3587" ry="18"/>
<text text-anchor="middle" x="1723" y="-29.8" font-family="Times,serif" font-size="14.00" fill="#000000">11100</text>
</g>
<!-- 1110&#45;&gt;11100 -->
<g id="edge59" class="edge">
<title>1110-&gt;11100</title>
<path fill="none" stroke="#000000" d="M1551.1149,-104.2827C1557.6461,-99.8175 1565.3102,-95.3983 1573,-92.8 1595.3795,-85.238 1657.898,-95.4175 1679,-84.8 1690.2859,-79.1215 1699.8964,-69.1582 1707.2297,-59.5508"/>
<polygon fill="#000000" stroke="#000000" points="1710.1402,-61.4971 1713.0728,-51.3162 1704.4314,-57.4463 1710.1402,-61.4971"/>
</g>
<!-- 11101 -->
<g id="node61" class="node">
<title>11101</title>
<ellipse fill="none" stroke="#000000" cx="1635" cy="-34" rx="35.3587" ry="18"/>
<text text-anchor="middle" x="1635" y="-29.8" font-family="Times,serif" font-size="14.00" fill="#000000">11101</text>
</g>
<!-- 1110&#45;&gt;11101 -->
<g id="edge60" class="edge">
<title>1110-&gt;11101</title>
<path fill="none" stroke="#000000" d="M1552.9697,-104.9358C1559.2535,-100.8154 1566.303,-96.4351 1573,-92.8 1580.6941,-88.6236 1583.9656,-90.0114 1591,-84.8 1600.6184,-77.6743 1609.5942,-68.1012 1616.8976,-59.1867"/>
<polygon fill="#000000" stroke="#000000" points="1619.6864,-61.3023 1623.1052,-51.2742 1614.179,-56.9815 1619.6864,-61.3023"/>
</g>
<!-- 11110 -->
<g id="node62" class="node">
<title>11110</title>
<ellipse fill="none" stroke="#000000" cx="1547" cy="-34" rx="35.3587" ry="18"/>
<text text-anchor="middle" x="1547" y="-29.8" font-family="Times,serif" font-size="14.00" fill="#000000">11110</text>
</g>
<!-- 1111&#45;&gt;11110 -->
<g id="edge61" class="edge">
<title>1111-&gt;11110</title>
<path fill="none" stroke="#000000" d="M1475.3656,-105.664C1484.2879,-99.7585 1494.5264,-92.4108 1503,-84.8 1511.6831,-77.001 1520.2985,-67.5406 1527.5733,-58.9079"/>
<polygon fill="#000000" stroke="#000000" points="1530.4538,-60.9153 1534.0958,-50.9661 1525.0443,-56.4725 1530.4538,-60.9153"/>
</g>
<!-- 11111 -->
<g id="node63" class="node">
<title>11111</title>
<ellipse fill="none" stroke="#000000" cx="1459" cy="-34" rx="35.3587" ry="18"/>
<text text-anchor="middle" x="1459" y="-29.8" font-family="Times,serif" font-size="14.00" fill="#000000">11111</text>
</g>
<!-- 1111&#45;&gt;11111 -->
<g id="edge62" class="edge">
<title>1111-&gt;11111</title>
<path fill="none" stroke="#000000" d="M1455.0849,-100.3997C1455.7446,-89.2112 1456.6003,-74.6983 1457.3434,-62.0954"/>
<polygon fill="#000000" stroke="#000000" points="1460.8396,-62.2618 1457.9344,-52.0731 1453.8517,-61.8497 1460.8396,-62.2618"/>
</g>
</g>
</svg>